<svg xmlns="http://www.w3.org/2000/svg" xmlns:xlink="http://www.w3.org/1999/xlink" width="500" zoomAndPan="magnify" viewBox="0 0 375 374.999991" height="500" preserveAspectRatio="xMidYMid meet" version="1.0"><defs><g/><clipPath id="a3a15196c8"><rect x="0" width="181" y="0" height="112"/></clipPath><clipPath id="44849abc1c"><path d="M 61 0.0390625 L 92 0.0390625 L 92 79 L 61 79 Z M 61 0.0390625 " clip-rule="nonzero"/></clipPath><clipPath id="9316c8e99c"><rect x="0" width="239" y="0" height="104"/></clipPath><clipPath id="a5649f9901"><path d="M 178 177 L 245 177 L 245 255 L 178 255 Z M 178 177 " clip-rule="nonzero"/></clipPath><clipPath id="996d894422"><path d="M 216.957031 161.96875 L 271.050781 216.0625 L 216.957031 270.15625 L 162.863281 216.0625 Z M 216.957031 161.96875 " clip-rule="nonzero"/></clipPath><clipPath id="200da27099"><path d="M 216.957031 161.96875 L 271.050781 216.0625 L 216.957031 270.15625 L 162.863281 216.0625 Z M 216.957031 161.96875 " clip-rule="nonzero"/></clipPath><clipPath id="38d47c9d0e"><path d="M 50 134 L 70 134 L 70 153 L 50 153 Z M 50 134 " clip-rule="nonzero"/></clipPath><clipPath id="9469a698da"><path d="M 41.636719 129.644531 L 75.132812 109.667969 L 102.792969 156.046875 L 69.296875 176.023438 Z M 41.636719 129.644531 " clip-rule="nonzero"/></clipPath><clipPath id="c60d3b0f57"><path d="M 41.636719 129.644531 L 75.132812 109.667969 L 102.792969 156.046875 L 69.296875 176.023438 Z M 41.636719 129.644531 " clip-rule="nonzero"/></clipPath><clipPath id="7cd63385a9"><path d="M 73 125 L 83 125 L 83 134 L 73 134 Z M 73 125 " clip-rule="nonzero"/></clipPath><clipPath id="fc69b696fb"><path d="M 41.636719 129.644531 L 75.132812 109.667969 L 102.792969 156.046875 L 69.296875 176.023438 Z M 41.636719 129.644531 " clip-rule="nonzero"/></clipPath><clipPath id="d04bed972f"><path d="M 41.636719 129.644531 L 75.132812 109.667969 L 102.792969 156.046875 L 69.296875 176.023438 Z M 41.636719 129.644531 " clip-rule="nonzero"/></clipPath><clipPath id="dd895e80a7"><path d="M 74 144 L 92 144 L 92 163 L 74 163 Z M 74 144 " clip-rule="nonzero"/></clipPath><clipPath id="8b68d2679c"><path d="M 41.636719 129.644531 L 75.132812 109.667969 L 102.792969 156.046875 L 69.296875 176.023438 Z M 41.636719 129.644531 " clip-rule="nonzero"/></clipPath><clipPath id="57ab529cb6"><path d="M 41.636719 129.644531 L 75.132812 109.667969 L 102.792969 156.046875 L 69.296875 176.023438 Z M 41.636719 129.644531 " clip-rule="nonzero"/></clipPath><clipPath id="93fd657c82"><path d="M 289 208 L 326 208 L 326 248 L 289 248 Z M 289 208 " clip-rule="nonzero"/></clipPath><clipPath id="e7c3c529b9"><path d="M 302.351562 201.023438 L 328.011719 211.582031 L 313.171875 247.648438 L 287.511719 237.089844 Z M 302.351562 201.023438 " clip-rule="nonzero"/></clipPath><clipPath id="17c6e3a4f4"><path d="M 20 8 L 34 8 L 34 22 L 20 22 Z M 20 8 " clip-rule="nonzero"/></clipPath><clipPath id="ee30431020"><path d="M 13.351562 -6.976562 L 39.011719 3.582031 L 24.171875 39.648438 L -1.488281 29.089844 Z M 13.351562 -6.976562 " clip-rule="nonzero"/></clipPath><clipPath id="c8128e9290"><path d="M 39.1875 3.652344 L 13.523438 -6.90625 L -1.316406 29.160156 L 24.347656 39.71875 Z M 39.1875 3.652344 " clip-rule="nonzero"/></clipPath><clipPath id="9e9522401a"><path d="M 10 3 L 17 3 L 17 11 L 10 11 Z M 10 3 " clip-rule="nonzero"/></clipPath><clipPath id="67062f4aef"><path d="M 13.351562 -6.976562 L 39.011719 3.582031 L 24.171875 39.648438 L -1.488281 29.089844 Z M 13.351562 -6.976562 " clip-rule="nonzero"/></clipPath><clipPath id="4dc2a294ee"><path d="M 39.1875 3.652344 L 13.523438 -6.90625 L -1.316406 29.160156 L 24.347656 39.71875 Z M 39.1875 3.652344 " clip-rule="nonzero"/></clipPath><clipPath id="cee1bbd642"><path d="M 5 18 L 20 18 L 20 33 L 5 33 Z M 5 18 " clip-rule="nonzero"/></clipPath><clipPath id="a54a8b9666"><path d="M 13.351562 -6.976562 L 39.011719 3.582031 L 24.171875 39.648438 L -1.488281 29.089844 Z M 13.351562 -6.976562 " clip-rule="nonzero"/></clipPath><clipPath id="0e1e54cc4d"><path d="M 39.1875 3.652344 L 13.523438 -6.90625 L -1.316406 29.160156 L 24.347656 39.71875 Z M 39.1875 3.652344 " clip-rule="nonzero"/></clipPath><clipPath id="6be3f8d651"><rect x="0" width="37" y="0" height="40"/></clipPath></defs><g transform="matrix(1, 0, 0, 1, 134, 84)"><g clip-path="url(#a3a15196c8)"><g fill="#6d47ff" fill-opacity="0.4"><g transform="translate(18.878462, 73.058216)"><g><path d="M -1.5625 -12.8125 C -1.726562 -14.726562 -1.476562 -16.429688 -0.8125 -17.921875 C -0.144531 -19.410156 0.785156 -20.613281 1.984375 -21.53125 C 3.179688 -22.457031 4.46875 -23 5.84375 -23.15625 C 6.96875 -23.289062 8.035156 -23.148438 9.046875 -22.734375 C 10.054688 -22.316406 11.039062 -21.734375 12 -20.984375 C 12.96875 -20.234375 13.925781 -19.425781 14.875 -18.5625 C 15.820312 -17.695312 16.765625 -16.882812 17.703125 -16.125 C 18.648438 -15.375 19.601562 -14.769531 20.5625 -14.3125 C 21.53125 -13.851562 22.523438 -13.671875 23.546875 -13.765625 C 24.835938 -13.878906 25.734375 -14.296875 26.234375 -15.015625 C 26.734375 -15.734375 26.941406 -16.582031 26.859375 -17.5625 C 26.753906 -18.6875 26.28125 -19.597656 25.4375 -20.296875 C 24.59375 -21.003906 23.488281 -21.582031 22.125 -22.03125 C 20.757812 -22.488281 19.226562 -22.90625 17.53125 -23.28125 C 15.84375 -23.664062 14.097656 -24.09375 12.296875 -24.5625 C 10.492188 -25.039062 8.726562 -25.644531 7 -26.375 C 5.269531 -27.113281 3.6875 -28.066406 2.25 -29.234375 C 0.820312 -30.398438 -0.351562 -31.847656 -1.28125 -33.578125 C -2.21875 -35.316406 -2.800781 -37.453125 -3.03125 -39.984375 C -3.351562 -43.671875 -2.71875 -46.945312 -1.125 -49.8125 C 0.457031 -52.675781 2.914062 -55.007812 6.25 -56.8125 C 9.59375 -58.613281 13.707031 -59.734375 18.59375 -60.171875 C 20.851562 -60.367188 23.101562 -60.335938 25.34375 -60.078125 C 27.59375 -59.828125 29.675781 -59.289062 31.59375 -58.46875 C 33.507812 -57.65625 35.082031 -56.535156 36.3125 -55.109375 C 37.539062 -53.679688 38.25 -51.890625 38.4375 -49.734375 C 38.570312 -48.191406 38.359375 -46.757812 37.796875 -45.4375 C 37.234375 -44.113281 36.40625 -43.003906 35.3125 -42.109375 C 34.226562 -41.222656 32.960938 -40.65625 31.515625 -40.40625 C 30.265625 -40.226562 29.066406 -40.363281 27.921875 -40.8125 C 26.785156 -41.257812 25.6875 -41.875 24.625 -42.65625 C 23.570312 -43.445312 22.519531 -44.238281 21.46875 -45.03125 C 20.425781 -45.820312 19.363281 -46.472656 18.28125 -46.984375 C 17.195312 -47.503906 16.082031 -47.71875 14.9375 -47.625 C 13.976562 -47.53125 13.234375 -47.285156 12.703125 -46.890625 C 12.179688 -46.492188 11.832031 -46.035156 11.65625 -45.515625 C 11.476562 -44.992188 11.410156 -44.503906 11.453125 -44.046875 C 11.546875 -42.953125 12.03125 -42.0625 12.90625 -41.375 C 13.78125 -40.695312 14.921875 -40.125 16.328125 -39.65625 C 17.734375 -39.1875 19.3125 -38.75 21.0625 -38.34375 C 22.820312 -37.945312 24.632812 -37.5 26.5 -37 C 28.375 -36.5 30.203125 -35.851562 31.984375 -35.0625 C 33.773438 -34.269531 35.410156 -33.265625 36.890625 -32.046875 C 38.367188 -30.835938 39.597656 -29.332031 40.578125 -27.53125 C 41.554688 -25.738281 42.160156 -23.550781 42.390625 -20.96875 C 42.640625 -18.226562 42.40625 -15.820312 41.6875 -13.75 C 40.96875 -11.675781 39.910156 -9.894531 38.515625 -8.40625 C 37.128906 -6.914062 35.539062 -5.679688 33.75 -4.703125 C 31.957031 -3.722656 30.082031 -2.96875 28.125 -2.4375 C 26.164062 -1.914062 24.273438 -1.578125 22.453125 -1.421875 C 20.359375 -1.234375 18.222656 -1.175781 16.046875 -1.25 C 13.878906 -1.320312 11.78125 -1.578125 9.75 -2.015625 C 7.71875 -2.460938 5.882812 -3.128906 4.25 -4.015625 C 2.613281 -4.910156 1.28125 -6.078125 0.25 -7.515625 C -0.769531 -8.960938 -1.375 -10.726562 -1.5625 -12.8125 Z M -1.5625 -12.8125 "/></g></g></g><g fill="#6d47ff" fill-opacity="0.4"><g transform="translate(58.649183, 69.903807)"><g><path d="M 5.203125 -19.828125 C 5.273438 -21.585938 5.207031 -23.082031 5 -24.3125 C 4.789062 -25.539062 4.507812 -26.601562 4.15625 -27.5 C 3.800781 -28.40625 3.445312 -29.210938 3.09375 -29.921875 C 2.738281 -30.640625 2.441406 -31.34375 2.203125 -32.03125 C 1.972656 -32.726562 1.875 -33.503906 1.90625 -34.359375 C 1.945312 -35.285156 2.347656 -35.992188 3.109375 -36.484375 C 3.878906 -36.972656 4.847656 -37.359375 6.015625 -37.640625 C 7.179688 -37.921875 8.375 -38.195312 9.59375 -38.46875 C 10.0625 -38.582031 10.664062 -38.722656 11.40625 -38.890625 C 12.15625 -39.054688 12.914062 -39.222656 13.6875 -39.390625 C 14.457031 -39.554688 15.144531 -39.6875 15.75 -39.78125 C 16.351562 -39.882812 16.789062 -39.929688 17.0625 -39.921875 C 17.726562 -39.890625 18.378906 -39.625 19.015625 -39.125 C 19.648438 -38.625 20.15625 -37.769531 20.53125 -36.5625 C 20.90625 -35.351562 21.046875 -33.679688 20.953125 -31.546875 C 20.890625 -30.128906 20.828125 -28.644531 20.765625 -27.09375 C 20.710938 -25.550781 20.65625 -24.085938 20.59375 -22.703125 C 20.53125 -21.316406 20.476562 -20.132812 20.4375 -19.15625 C 20.363281 -17.4375 20.472656 -15.769531 20.765625 -14.15625 C 21.054688 -12.539062 21.414062 -11.015625 21.84375 -9.578125 C 22.28125 -8.140625 22.65625 -6.828125 22.96875 -5.640625 C 23.28125 -4.460938 23.414062 -3.429688 23.375 -2.546875 C 23.332031 -1.585938 23.097656 -0.867188 22.671875 -0.390625 C 22.253906 0.0859375 21.738281 0.410156 21.125 0.578125 C 20.507812 0.753906 19.898438 0.835938 19.296875 0.828125 C 18.703125 0.816406 18.191406 0.800781 17.765625 0.78125 L 6.171875 0.265625 C 5.742188 0.242188 5.226562 0.210938 4.625 0.171875 C 4.019531 0.128906 3.421875 0 2.828125 -0.21875 C 2.242188 -0.445312 1.757812 -0.816406 1.375 -1.328125 C 1 -1.835938 0.832031 -2.570312 0.875 -3.53125 C 0.914062 -4.601562 1.140625 -5.707031 1.546875 -6.84375 C 1.960938 -7.988281 2.441406 -9.21875 2.984375 -10.53125 C 3.523438 -11.84375 4.007812 -13.257812 4.4375 -14.78125 C 4.863281 -16.300781 5.117188 -17.984375 5.203125 -19.828125 Z M 13.71875 -42.484375 C 13.257812 -42.503906 12.617188 -42.707031 11.796875 -43.09375 C 10.972656 -43.476562 10.101562 -44 9.1875 -44.65625 C 8.269531 -45.3125 7.394531 -46.0625 6.5625 -46.90625 C 5.726562 -47.757812 5.054688 -48.6875 4.546875 -49.6875 C 4.046875 -50.6875 3.820312 -51.722656 3.875 -52.796875 C 3.914062 -53.859375 4.1875 -54.773438 4.6875 -55.546875 C 5.195312 -56.328125 5.832031 -56.925781 6.59375 -57.34375 C 7.363281 -57.757812 8.191406 -57.953125 9.078125 -57.921875 C 10.296875 -57.867188 11.320312 -57.476562 12.15625 -56.75 C 12.988281 -56.019531 13.6875 -55.285156 14.25 -54.546875 C 14.894531 -55.234375 15.664062 -55.898438 16.5625 -56.546875 C 17.457031 -57.203125 18.519531 -57.503906 19.75 -57.453125 C 20.632812 -57.410156 21.445312 -57.144531 22.1875 -56.65625 C 22.925781 -56.175781 23.503906 -55.523438 23.921875 -54.703125 C 24.335938 -53.890625 24.523438 -52.953125 24.484375 -51.890625 C 24.429688 -50.816406 24.109375 -49.804688 23.515625 -48.859375 C 22.929688 -47.910156 22.1875 -47.046875 21.28125 -46.265625 C 20.375 -45.492188 19.425781 -44.820312 18.4375 -44.25 C 17.457031 -43.675781 16.546875 -43.234375 15.703125 -42.921875 C 14.859375 -42.609375 14.195312 -42.460938 13.71875 -42.484375 Z M 13.71875 -42.484375 "/></g></g></g><g fill="#6d47ff" fill-opacity="0.4"><g transform="translate(80.393635, 70.772975)"><g><path d="M 0.90625 -3.46875 C 1.050781 -4.53125 1.257812 -5.414062 1.53125 -6.125 C 1.800781 -6.84375 2.128906 -7.550781 2.515625 -8.25 C 2.898438 -8.957031 3.3125 -9.789062 3.75 -10.75 C 4.195312 -11.707031 4.671875 -12.929688 5.171875 -14.421875 C 5.671875 -15.921875 6.164062 -17.828125 6.65625 -20.140625 C 7.15625 -22.460938 7.648438 -25.34375 8.140625 -28.78125 C 8.523438 -31.53125 8.773438 -33.910156 8.890625 -35.921875 C 9.003906 -37.941406 9.019531 -39.691406 8.9375 -41.171875 C 8.863281 -42.660156 8.75 -43.945312 8.59375 -45.03125 C 8.4375 -46.113281 8.28125 -47.109375 8.125 -48.015625 C 7.96875 -48.921875 7.863281 -49.804688 7.8125 -50.671875 C 7.757812 -51.535156 7.804688 -52.484375 7.953125 -53.515625 C 8.085938 -54.460938 8.421875 -55.148438 8.953125 -55.578125 C 9.484375 -56.003906 10.097656 -56.269531 10.796875 -56.375 C 11.503906 -56.476562 12.1875 -56.488281 12.84375 -56.40625 C 13.5 -56.332031 14.039062 -56.265625 14.46875 -56.203125 L 24.6875 -54.765625 C 25.113281 -54.703125 25.660156 -54.613281 26.328125 -54.5 C 26.992188 -54.394531 27.648438 -54.195312 28.296875 -53.90625 C 28.941406 -53.613281 29.457031 -53.1875 29.84375 -52.625 C 30.238281 -52.070312 30.367188 -51.320312 30.234375 -50.375 C 30.085938 -49.34375 29.867188 -48.414062 29.578125 -47.59375 C 29.296875 -46.78125 28.953125 -45.957031 28.546875 -45.125 C 28.140625 -44.300781 27.710938 -43.390625 27.265625 -42.390625 C 26.816406 -41.398438 26.351562 -40.203125 25.875 -38.796875 C 25.394531 -37.390625 24.925781 -35.703125 24.46875 -33.734375 C 24.019531 -31.765625 23.601562 -29.40625 23.21875 -26.65625 C 22.726562 -23.21875 22.40625 -20.316406 22.25 -17.953125 C 22.09375 -15.585938 22.039062 -13.617188 22.09375 -12.046875 C 22.15625 -10.472656 22.265625 -9.160156 22.421875 -8.109375 C 22.585938 -7.066406 22.757812 -6.15625 22.9375 -5.375 C 23.113281 -4.59375 23.234375 -3.820312 23.296875 -3.0625 C 23.367188 -2.300781 23.332031 -1.390625 23.1875 -0.328125 C 23.050781 0.617188 22.71875 1.300781 22.1875 1.71875 C 21.65625 2.144531 21.035156 2.410156 20.328125 2.515625 C 19.628906 2.617188 18.945312 2.628906 18.28125 2.546875 C 17.613281 2.472656 17.066406 2.40625 16.640625 2.34375 L 6.421875 0.90625 C 5.992188 0.84375 5.453125 0.753906 4.796875 0.640625 C 4.140625 0.535156 3.488281 0.335938 2.84375 0.046875 C 2.195312 -0.242188 1.675781 -0.664062 1.28125 -1.21875 C 0.894531 -1.769531 0.769531 -2.519531 0.90625 -3.46875 Z M 0.90625 -3.46875 "/></g></g></g><g fill="#6d47ff" fill-opacity="0.4"><g transform="translate(101.648965, 73.680311)"><g><path d="M 1.21875 -3.375 C 1.46875 -4.414062 1.765625 -5.273438 2.109375 -5.953125 C 2.453125 -6.640625 2.847656 -7.316406 3.296875 -7.984375 C 3.742188 -8.648438 4.234375 -9.4375 4.765625 -10.34375 C 5.304688 -11.257812 5.894531 -12.4375 6.53125 -13.875 C 7.164062 -15.3125 7.84375 -17.15625 8.5625 -19.40625 C 9.28125 -21.664062 10.046875 -24.484375 10.859375 -27.859375 C 11.503906 -30.554688 11.976562 -32.90625 12.28125 -34.90625 C 12.59375 -36.90625 12.78125 -38.648438 12.84375 -40.140625 C 12.90625 -41.628906 12.910156 -42.921875 12.859375 -44.015625 C 12.804688 -45.109375 12.742188 -46.109375 12.671875 -47.015625 C 12.597656 -47.921875 12.578125 -48.8125 12.609375 -49.6875 C 12.648438 -50.5625 12.789062 -51.503906 13.03125 -52.515625 C 13.25 -53.453125 13.644531 -54.101562 14.21875 -54.46875 C 14.789062 -54.84375 15.429688 -55.046875 16.140625 -55.078125 C 16.847656 -55.117188 17.523438 -55.066406 18.171875 -54.921875 C 18.828125 -54.785156 19.363281 -54.664062 19.78125 -54.5625 L 29.8125 -52.15625 C 30.226562 -52.050781 30.765625 -51.910156 31.421875 -51.734375 C 32.078125 -51.566406 32.707031 -51.304688 33.3125 -50.953125 C 33.925781 -50.609375 34.398438 -50.140625 34.734375 -49.546875 C 35.066406 -48.960938 35.125 -48.203125 34.90625 -47.265625 C 34.664062 -46.253906 34.359375 -45.347656 33.984375 -44.546875 C 33.617188 -43.753906 33.195312 -42.96875 32.71875 -42.1875 C 32.25 -41.414062 31.738281 -40.554688 31.1875 -39.609375 C 30.644531 -38.660156 30.066406 -37.503906 29.453125 -36.140625 C 28.847656 -34.785156 28.222656 -33.148438 27.578125 -31.234375 C 26.941406 -29.316406 26.300781 -27.007812 25.65625 -24.3125 C 24.84375 -20.9375 24.242188 -18.078125 23.859375 -15.734375 C 23.472656 -13.398438 23.234375 -11.445312 23.140625 -9.875 C 23.054688 -8.3125 23.046875 -7 23.109375 -5.9375 C 23.171875 -4.882812 23.25 -3.957031 23.34375 -3.15625 C 23.445312 -2.363281 23.492188 -1.585938 23.484375 -0.828125 C 23.472656 -0.0664062 23.34375 0.832031 23.09375 1.875 C 22.875 2.8125 22.476562 3.460938 21.90625 3.828125 C 21.34375 4.203125 20.707031 4.40625 20 4.4375 C 19.300781 4.476562 18.617188 4.425781 17.953125 4.28125 C 17.296875 4.144531 16.757812 4.023438 16.34375 3.921875 L 6.3125 1.515625 C 5.894531 1.410156 5.363281 1.269531 4.71875 1.09375 C 4.070312 0.925781 3.441406 0.664062 2.828125 0.3125 C 2.210938 -0.03125 1.734375 -0.492188 1.390625 -1.078125 C 1.054688 -1.671875 1 -2.4375 1.21875 -3.375 Z M 1.21875 -3.375 "/></g></g></g><g fill="#6d47ff" fill-opacity="0.4"><g transform="translate(119.95106, 77.27353)"><g><path d="M 18.53125 7.53125 C 14.769531 6.125 11.863281 4.117188 9.8125 1.515625 C 7.757812 -1.078125 6.570312 -4.082031 6.25 -7.5 C 5.925781 -10.925781 6.484375 -14.582031 7.921875 -18.46875 C 9.359375 -22.320312 11.3125 -25.429688 13.78125 -27.796875 C 16.257812 -30.171875 19.125 -31.671875 22.375 -32.296875 C 25.625 -32.921875 29.128906 -32.53125 32.890625 -31.125 C 36.640625 -29.738281 39.539062 -27.742188 41.59375 -25.140625 C 43.65625 -22.546875 44.847656 -19.539062 45.171875 -16.125 C 45.503906 -12.71875 44.953125 -9.085938 43.515625 -5.234375 C 42.078125 -1.347656 40.117188 1.78125 37.640625 4.15625 C 35.160156 6.539062 32.289062 8.046875 29.03125 8.671875 C 25.78125 9.296875 22.28125 8.914062 18.53125 7.53125 Z M 22.359375 -13.015625 C 21.316406 -10.210938 20.773438 -7.832031 20.734375 -5.875 C 20.703125 -3.914062 21.191406 -2.75 22.203125 -2.375 C 23.191406 -2.007812 24.316406 -2.578125 25.578125 -4.078125 C 26.847656 -5.578125 28.003906 -7.726562 29.046875 -10.53125 C 30.097656 -13.363281 30.632812 -15.753906 30.65625 -17.703125 C 30.675781 -19.660156 30.191406 -20.820312 29.203125 -21.1875 C 28.191406 -21.5625 27.0625 -21 25.8125 -19.5 C 24.5625 -18.007812 23.410156 -15.847656 22.359375 -13.015625 Z M 22.359375 -13.015625 "/></g></g></g><g fill="#6d47ff" fill-opacity="1"><g transform="translate(17.046484, 70.678599)"><g><path d="M -1.5625 -12.8125 C -1.726562 -14.726562 -1.476562 -16.429688 -0.8125 -17.921875 C -0.144531 -19.410156 0.785156 -20.613281 1.984375 -21.53125 C 3.179688 -22.457031 4.46875 -23 5.84375 -23.15625 C 6.96875 -23.289062 8.035156 -23.148438 9.046875 -22.734375 C 10.054688 -22.316406 11.039062 -21.734375 12 -20.984375 C 12.96875 -20.234375 13.925781 -19.425781 14.875 -18.5625 C 15.820312 -17.695312 16.765625 -16.882812 17.703125 -16.125 C 18.648438 -15.375 19.601562 -14.769531 20.5625 -14.3125 C 21.53125 -13.851562 22.523438 -13.671875 23.546875 -13.765625 C 24.835938 -13.878906 25.734375 -14.296875 26.234375 -15.015625 C 26.734375 -15.734375 26.941406 -16.582031 26.859375 -17.5625 C 26.753906 -18.6875 26.28125 -19.597656 25.4375 -20.296875 C 24.59375 -21.003906 23.488281 -21.582031 22.125 -22.03125 C 20.757812 -22.488281 19.226562 -22.90625 17.53125 -23.28125 C 15.84375 -23.664062 14.097656 -24.09375 12.296875 -24.5625 C 10.492188 -25.039062 8.726562 -25.644531 7 -26.375 C 5.269531 -27.113281 3.6875 -28.066406 2.25 -29.234375 C 0.820312 -30.398438 -0.351562 -31.847656 -1.28125 -33.578125 C -2.21875 -35.316406 -2.800781 -37.453125 -3.03125 -39.984375 C -3.351562 -43.671875 -2.71875 -46.945312 -1.125 -49.8125 C 0.457031 -52.675781 2.914062 -55.007812 6.25 -56.8125 C 9.59375 -58.613281 13.707031 -59.734375 18.59375 -60.171875 C 20.851562 -60.367188 23.101562 -60.335938 25.34375 -60.078125 C 27.59375 -59.828125 29.675781 -59.289062 31.59375 -58.46875 C 33.507812 -57.65625 35.082031 -56.535156 36.3125 -55.109375 C 37.539062 -53.679688 38.25 -51.890625 38.4375 -49.734375 C 38.570312 -48.191406 38.359375 -46.757812 37.796875 -45.4375 C 37.234375 -44.113281 36.40625 -43.003906 35.3125 -42.109375 C 34.226562 -41.222656 32.960938 -40.65625 31.515625 -40.40625 C 30.265625 -40.226562 29.066406 -40.363281 27.921875 -40.8125 C 26.785156 -41.257812 25.6875 -41.875 24.625 -42.65625 C 23.570312 -43.445312 22.519531 -44.238281 21.46875 -45.03125 C 20.425781 -45.820312 19.363281 -46.472656 18.28125 -46.984375 C 17.195312 -47.503906 16.082031 -47.71875 14.9375 -47.625 C 13.976562 -47.53125 13.234375 -47.285156 12.703125 -46.890625 C 12.179688 -46.492188 11.832031 -46.035156 11.65625 -45.515625 C 11.476562 -44.992188 11.410156 -44.503906 11.453125 -44.046875 C 11.546875 -42.953125 12.03125 -42.0625 12.90625 -41.375 C 13.78125 -40.695312 14.921875 -40.125 16.328125 -39.65625 C 17.734375 -39.1875 19.3125 -38.75 21.0625 -38.34375 C 22.820312 -37.945312 24.632812 -37.5 26.5 -37 C 28.375 -36.5 30.203125 -35.851562 31.984375 -35.0625 C 33.773438 -34.269531 35.410156 -33.265625 36.890625 -32.046875 C 38.367188 -30.835938 39.597656 -29.332031 40.578125 -27.53125 C 41.554688 -25.738281 42.160156 -23.550781 42.390625 -20.96875 C 42.640625 -18.226562 42.40625 -15.820312 41.6875 -13.75 C 40.96875 -11.675781 39.910156 -9.894531 38.515625 -8.40625 C 37.128906 -6.914062 35.539062 -5.679688 33.75 -4.703125 C 31.957031 -3.722656 30.082031 -2.96875 28.125 -2.4375 C 26.164062 -1.914062 24.273438 -1.578125 22.453125 -1.421875 C 20.359375 -1.234375 18.222656 -1.175781 16.046875 -1.25 C 13.878906 -1.320312 11.78125 -1.578125 9.75 -2.015625 C 7.71875 -2.460938 5.882812 -3.128906 4.25 -4.015625 C 2.613281 -4.910156 1.28125 -6.078125 0.25 -7.515625 C -0.769531 -8.960938 -1.375 -10.726562 -1.5625 -12.8125 Z M -1.5625 -12.8125 "/></g></g></g><g fill="#6d47ff" fill-opacity="1"><g transform="translate(56.817205, 67.524191)"><g><path d="M 5.203125 -19.828125 C 5.273438 -21.585938 5.207031 -23.082031 5 -24.3125 C 4.789062 -25.539062 4.507812 -26.601562 4.15625 -27.5 C 3.800781 -28.40625 3.445312 -29.210938 3.09375 -29.921875 C 2.738281 -30.640625 2.441406 -31.34375 2.203125 -32.03125 C 1.972656 -32.726562 1.875 -33.503906 1.90625 -34.359375 C 1.945312 -35.285156 2.347656 -35.992188 3.109375 -36.484375 C 3.878906 -36.972656 4.847656 -37.359375 6.015625 -37.640625 C 7.179688 -37.921875 8.375 -38.195312 9.59375 -38.46875 C 10.0625 -38.582031 10.664062 -38.722656 11.40625 -38.890625 C 12.15625 -39.054688 12.914062 -39.222656 13.6875 -39.390625 C 14.457031 -39.554688 15.144531 -39.6875 15.75 -39.78125 C 16.351562 -39.882812 16.789062 -39.929688 17.0625 -39.921875 C 17.726562 -39.890625 18.378906 -39.625 19.015625 -39.125 C 19.648438 -38.625 20.15625 -37.769531 20.53125 -36.5625 C 20.90625 -35.351562 21.046875 -33.679688 20.953125 -31.546875 C 20.890625 -30.128906 20.828125 -28.644531 20.765625 -27.09375 C 20.710938 -25.550781 20.65625 -24.085938 20.59375 -22.703125 C 20.53125 -21.316406 20.476562 -20.132812 20.4375 -19.15625 C 20.363281 -17.4375 20.472656 -15.769531 20.765625 -14.15625 C 21.054688 -12.539062 21.414062 -11.015625 21.84375 -9.578125 C 22.28125 -8.140625 22.65625 -6.828125 22.96875 -5.640625 C 23.28125 -4.460938 23.414062 -3.429688 23.375 -2.546875 C 23.332031 -1.585938 23.097656 -0.867188 22.671875 -0.390625 C 22.253906 0.0859375 21.738281 0.410156 21.125 0.578125 C 20.507812 0.753906 19.898438 0.835938 19.296875 0.828125 C 18.703125 0.816406 18.191406 0.800781 17.765625 0.78125 L 6.171875 0.265625 C 5.742188 0.242188 5.226562 0.210938 4.625 0.171875 C 4.019531 0.128906 3.421875 0 2.828125 -0.21875 C 2.242188 -0.445312 1.757812 -0.816406 1.375 -1.328125 C 1 -1.835938 0.832031 -2.570312 0.875 -3.53125 C 0.914062 -4.601562 1.140625 -5.707031 1.546875 -6.84375 C 1.960938 -7.988281 2.441406 -9.21875 2.984375 -10.53125 C 3.523438 -11.84375 4.007812 -13.257812 4.4375 -14.78125 C 4.863281 -16.300781 5.117188 -17.984375 5.203125 -19.828125 Z M 13.71875 -42.484375 C 13.257812 -42.503906 12.617188 -42.707031 11.796875 -43.09375 C 10.972656 -43.476562 10.101562 -44 9.1875 -44.65625 C 8.269531 -45.3125 7.394531 -46.0625 6.5625 -46.90625 C 5.726562 -47.757812 5.054688 -48.6875 4.546875 -49.6875 C 4.046875 -50.6875 3.820312 -51.722656 3.875 -52.796875 C 3.914062 -53.859375 4.1875 -54.773438 4.6875 -55.546875 C 5.195312 -56.328125 5.832031 -56.925781 6.59375 -57.34375 C 7.363281 -57.757812 8.191406 -57.953125 9.078125 -57.921875 C 10.296875 -57.867188 11.320312 -57.476562 12.15625 -56.75 C 12.988281 -56.019531 13.6875 -55.285156 14.25 -54.546875 C 14.894531 -55.234375 15.664062 -55.898438 16.5625 -56.546875 C 17.457031 -57.203125 18.519531 -57.503906 19.75 -57.453125 C 20.632812 -57.410156 21.445312 -57.144531 22.1875 -56.65625 C 22.925781 -56.175781 23.503906 -55.523438 23.921875 -54.703125 C 24.335938 -53.890625 24.523438 -52.953125 24.484375 -51.890625 C 24.429688 -50.816406 24.109375 -49.804688 23.515625 -48.859375 C 22.929688 -47.910156 22.1875 -47.046875 21.28125 -46.265625 C 20.375 -45.492188 19.425781 -44.820312 18.4375 -44.25 C 17.457031 -43.675781 16.546875 -43.234375 15.703125 -42.921875 C 14.859375 -42.609375 14.195312 -42.460938 13.71875 -42.484375 Z M 13.71875 -42.484375 "/></g></g></g><g fill="#6d47ff" fill-opacity="1"><g transform="translate(78.561643, 68.393366)"><g><path d="M 0.90625 -3.46875 C 1.050781 -4.53125 1.257812 -5.414062 1.53125 -6.125 C 1.800781 -6.84375 2.128906 -7.550781 2.515625 -8.25 C 2.898438 -8.957031 3.3125 -9.789062 3.75 -10.75 C 4.195312 -11.707031 4.671875 -12.929688 5.171875 -14.421875 C 5.671875 -15.921875 6.164062 -17.828125 6.65625 -20.140625 C 7.15625 -22.460938 7.648438 -25.34375 8.140625 -28.78125 C 8.523438 -31.53125 8.773438 -33.910156 8.890625 -35.921875 C 9.003906 -37.941406 9.019531 -39.691406 8.9375 -41.171875 C 8.863281 -42.660156 8.75 -43.945312 8.59375 -45.03125 C 8.4375 -46.113281 8.28125 -47.109375 8.125 -48.015625 C 7.96875 -48.921875 7.863281 -49.804688 7.8125 -50.671875 C 7.757812 -51.535156 7.804688 -52.484375 7.953125 -53.515625 C 8.085938 -54.460938 8.421875 -55.148438 8.953125 -55.578125 C 9.484375 -56.003906 10.097656 -56.269531 10.796875 -56.375 C 11.503906 -56.476562 12.1875 -56.488281 12.84375 -56.40625 C 13.5 -56.332031 14.039062 -56.265625 14.46875 -56.203125 L 24.6875 -54.765625 C 25.113281 -54.703125 25.660156 -54.613281 26.328125 -54.5 C 26.992188 -54.394531 27.648438 -54.195312 28.296875 -53.90625 C 28.941406 -53.613281 29.457031 -53.1875 29.84375 -52.625 C 30.238281 -52.070312 30.367188 -51.320312 30.234375 -50.375 C 30.085938 -49.34375 29.867188 -48.414062 29.578125 -47.59375 C 29.296875 -46.78125 28.953125 -45.957031 28.546875 -45.125 C 28.140625 -44.300781 27.710938 -43.390625 27.265625 -42.390625 C 26.816406 -41.398438 26.351562 -40.203125 25.875 -38.796875 C 25.394531 -37.390625 24.925781 -35.703125 24.46875 -33.734375 C 24.019531 -31.765625 23.601562 -29.40625 23.21875 -26.65625 C 22.726562 -23.21875 22.40625 -20.316406 22.25 -17.953125 C 22.09375 -15.585938 22.039062 -13.617188 22.09375 -12.046875 C 22.15625 -10.472656 22.265625 -9.160156 22.421875 -8.109375 C 22.585938 -7.066406 22.757812 -6.15625 22.9375 -5.375 C 23.113281 -4.59375 23.234375 -3.820312 23.296875 -3.0625 C 23.367188 -2.300781 23.332031 -1.390625 23.1875 -0.328125 C 23.050781 0.617188 22.71875 1.300781 22.1875 1.71875 C 21.65625 2.144531 21.035156 2.410156 20.328125 2.515625 C 19.628906 2.617188 18.945312 2.628906 18.28125 2.546875 C 17.613281 2.472656 17.066406 2.40625 16.640625 2.34375 L 6.421875 0.90625 C 5.992188 0.84375 5.453125 0.753906 4.796875 0.640625 C 4.140625 0.535156 3.488281 0.335938 2.84375 0.046875 C 2.195312 -0.242188 1.675781 -0.664062 1.28125 -1.21875 C 0.894531 -1.769531 0.769531 -2.519531 0.90625 -3.46875 Z M 0.90625 -3.46875 "/></g></g></g><g fill="#6d47ff" fill-opacity="1"><g transform="translate(99.816973, 71.300695)"><g><path d="M 1.21875 -3.375 C 1.46875 -4.414062 1.765625 -5.273438 2.109375 -5.953125 C 2.453125 -6.640625 2.847656 -7.316406 3.296875 -7.984375 C 3.742188 -8.648438 4.234375 -9.4375 4.765625 -10.34375 C 5.304688 -11.257812 5.894531 -12.4375 6.53125 -13.875 C 7.164062 -15.3125 7.84375 -17.15625 8.5625 -19.40625 C 9.28125 -21.664062 10.046875 -24.484375 10.859375 -27.859375 C 11.503906 -30.554688 11.976562 -32.90625 12.28125 -34.90625 C 12.59375 -36.90625 12.78125 -38.648438 12.84375 -40.140625 C 12.90625 -41.628906 12.910156 -42.921875 12.859375 -44.015625 C 12.804688 -45.109375 12.742188 -46.109375 12.671875 -47.015625 C 12.597656 -47.921875 12.578125 -48.8125 12.609375 -49.6875 C 12.648438 -50.5625 12.789062 -51.503906 13.03125 -52.515625 C 13.25 -53.453125 13.644531 -54.101562 14.21875 -54.46875 C 14.789062 -54.84375 15.429688 -55.046875 16.140625 -55.078125 C 16.847656 -55.117188 17.523438 -55.066406 18.171875 -54.921875 C 18.828125 -54.785156 19.363281 -54.664062 19.78125 -54.5625 L 29.8125 -52.15625 C 30.226562 -52.050781 30.765625 -51.910156 31.421875 -51.734375 C 32.078125 -51.566406 32.707031 -51.304688 33.3125 -50.953125 C 33.925781 -50.609375 34.398438 -50.140625 34.734375 -49.546875 C 35.066406 -48.960938 35.125 -48.203125 34.90625 -47.265625 C 34.664062 -46.253906 34.359375 -45.347656 33.984375 -44.546875 C 33.617188 -43.753906 33.195312 -42.96875 32.71875 -42.1875 C 32.25 -41.414062 31.738281 -40.554688 31.1875 -39.609375 C 30.644531 -38.660156 30.066406 -37.503906 29.453125 -36.140625 C 28.847656 -34.785156 28.222656 -33.148438 27.578125 -31.234375 C 26.941406 -29.316406 26.300781 -27.007812 25.65625 -24.3125 C 24.84375 -20.9375 24.242188 -18.078125 23.859375 -15.734375 C 23.472656 -13.398438 23.234375 -11.445312 23.140625 -9.875 C 23.054688 -8.3125 23.046875 -7 23.109375 -5.9375 C 23.171875 -4.882812 23.25 -3.957031 23.34375 -3.15625 C 23.445312 -2.363281 23.492188 -1.585938 23.484375 -0.828125 C 23.472656 -0.0664062 23.34375 0.832031 23.09375 1.875 C 22.875 2.8125 22.476562 3.460938 21.90625 3.828125 C 21.34375 4.203125 20.707031 4.40625 20 4.4375 C 19.300781 4.476562 18.617188 4.425781 17.953125 4.28125 C 17.296875 4.144531 16.757812 4.023438 16.34375 3.921875 L 6.3125 1.515625 C 5.894531 1.410156 5.363281 1.269531 4.71875 1.09375 C 4.070312 0.925781 3.441406 0.664062 2.828125 0.3125 C 2.210938 -0.03125 1.734375 -0.492188 1.390625 -1.078125 C 1.054688 -1.671875 1 -2.4375 1.21875 -3.375 Z M 1.21875 -3.375 "/></g></g></g><g fill="#6d47ff" fill-opacity="1"><g transform="translate(118.119068, 74.893906)"><g><path d="M 18.53125 7.53125 C 14.769531 6.125 11.863281 4.117188 9.8125 1.515625 C 7.757812 -1.078125 6.570312 -4.082031 6.25 -7.5 C 5.925781 -10.925781 6.484375 -14.582031 7.921875 -18.46875 C 9.359375 -22.320312 11.3125 -25.429688 13.78125 -27.796875 C 16.257812 -30.171875 19.125 -31.671875 22.375 -32.296875 C 25.625 -32.921875 29.128906 -32.53125 32.890625 -31.125 C 36.640625 -29.738281 39.539062 -27.742188 41.59375 -25.140625 C 43.65625 -22.546875 44.847656 -19.539062 45.171875 -16.125 C 45.503906 -12.71875 44.953125 -9.085938 43.515625 -5.234375 C 42.078125 -1.347656 40.117188 1.78125 37.640625 4.15625 C 35.160156 6.539062 32.289062 8.046875 29.03125 8.671875 C 25.78125 9.296875 22.28125 8.914062 18.53125 7.53125 Z M 22.359375 -13.015625 C 21.316406 -10.210938 20.773438 -7.832031 20.734375 -5.875 C 20.703125 -3.914062 21.191406 -2.75 22.203125 -2.375 C 23.191406 -2.007812 24.316406 -2.578125 25.578125 -4.078125 C 26.847656 -5.578125 28.003906 -7.726562 29.046875 -10.53125 C 30.097656 -13.363281 30.632812 -15.753906 30.65625 -17.703125 C 30.675781 -19.660156 30.191406 -20.820312 29.203125 -21.1875 C 28.191406 -21.5625 27.0625 -21 25.8125 -19.5 C 24.5625 -18.007812 23.410156 -15.847656 22.359375 -13.015625 Z M 22.359375 -13.015625 "/></g></g></g></g></g><g transform="matrix(1, 0, 0, 1, 57, 173)"><g clip-path="url(#9316c8e99c)"><g fill="#6d47ff" fill-opacity="0.4"><g transform="translate(3.791597, 81.128179)"><g><path d="M 1.0625 -4.75 C 1.0625 -6.570312 1.222656 -8.238281 1.546875 -9.75 C 1.867188 -11.269531 2.269531 -12.859375 2.75 -14.515625 C 3.226562 -16.171875 3.71875 -18.09375 4.21875 -20.28125 C 4.71875 -22.476562 5.128906 -25.125 5.453125 -28.21875 C 5.773438 -31.320312 5.9375 -35.101562 5.9375 -39.5625 C 5.9375 -43.257812 5.816406 -46.453125 5.578125 -49.140625 C 5.347656 -51.835938 5.046875 -54.144531 4.671875 -56.0625 C 4.296875 -57.988281 3.90625 -59.664062 3.5 -61.09375 C 3.09375 -62.519531 2.703125 -63.8125 2.328125 -64.96875 C 1.953125 -66.125 1.644531 -67.269531 1.40625 -68.40625 C 1.175781 -69.550781 1.0625 -70.820312 1.0625 -72.21875 C 1.0625 -73.5 1.375 -74.46875 2 -75.125 C 2.625 -75.789062 3.390625 -76.253906 4.296875 -76.515625 C 5.210938 -76.785156 6.113281 -76.925781 7 -76.9375 C 7.894531 -76.957031 8.625 -76.96875 9.1875 -76.96875 L 39.609375 -76.96875 C 43.273438 -76.96875 46.523438 -76.226562 49.359375 -74.75 C 52.191406 -73.269531 54.421875 -71.191406 56.046875 -68.515625 C 57.671875 -65.847656 58.484375 -62.734375 58.484375 -59.171875 C 58.484375 -57.640625 58.273438 -56.070312 57.859375 -54.46875 C 57.453125 -52.863281 56.773438 -51.320312 55.828125 -49.84375 C 54.890625 -48.363281 53.644531 -47.046875 52.09375 -45.890625 C 50.539062 -44.734375 48.625 -43.851562 46.34375 -43.25 C 45.445312 -43 45 -42.660156 45 -42.234375 C 45 -41.941406 45.351562 -41.632812 46.0625 -41.3125 C 46.78125 -41 47.691406 -40.597656 48.796875 -40.109375 C 49.898438 -39.628906 51.082031 -38.953125 52.34375 -38.078125 C 53.613281 -37.210938 54.800781 -36.082031 55.90625 -34.6875 C 57.007812 -33.300781 57.914062 -31.554688 58.625 -29.453125 C 59.34375 -27.347656 59.703125 -24.78125 59.703125 -21.75 C 59.703125 -19.894531 59.441406 -17.960938 58.921875 -15.953125 C 58.410156 -13.941406 57.59375 -11.988281 56.46875 -10.09375 C 55.351562 -8.207031 53.867188 -6.5 52.015625 -4.96875 C 50.160156 -3.4375 47.894531 -2.222656 45.21875 -1.328125 C 42.550781 -0.441406 39.414062 0 35.8125 0 L 8.34375 0 C 7.769531 0 7.082031 -0.00390625 6.28125 -0.015625 C 5.476562 -0.0351562 4.675781 -0.179688 3.875 -0.453125 C 3.070312 -0.722656 2.398438 -1.1875 1.859375 -1.84375 C 1.328125 -2.5 1.0625 -3.46875 1.0625 -4.75 Z M 26.140625 -19.34375 C 26.140625 -17.8125 26.421875 -16.785156 26.984375 -16.265625 C 27.554688 -15.753906 28.34375 -15.5 29.34375 -15.5 C 31.09375 -15.5 32.519531 -15.835938 33.625 -16.515625 C 34.726562 -17.191406 35.59375 -18.046875 36.21875 -19.078125 C 36.84375 -20.117188 37.273438 -21.191406 37.515625 -22.296875 C 37.765625 -23.398438 37.890625 -24.378906 37.890625 -25.234375 C 37.890625 -26.085938 37.765625 -27.070312 37.515625 -28.1875 C 37.273438 -29.3125 36.84375 -30.390625 36.21875 -31.421875 C 35.59375 -32.460938 34.726562 -33.320312 33.625 -34 C 32.519531 -34.675781 31.09375 -35.015625 29.34375 -35.015625 C 28.34375 -35.015625 27.554688 -34.765625 26.984375 -34.265625 C 26.421875 -33.765625 26.140625 -32.726562 26.140625 -31.15625 C 26.140625 -30.800781 26.144531 -30.222656 26.15625 -29.421875 C 26.175781 -28.617188 26.195312 -27.816406 26.21875 -27.015625 C 26.238281 -26.210938 26.25 -25.617188 26.25 -25.234375 C 26.25 -24.878906 26.238281 -24.300781 26.21875 -23.5 C 26.195312 -22.695312 26.175781 -21.898438 26.15625 -21.109375 C 26.144531 -20.328125 26.140625 -19.738281 26.140625 -19.34375 Z M 26.140625 -50.296875 C 26.140625 -49.191406 26.421875 -48.453125 26.984375 -48.078125 C 27.554688 -47.703125 28.34375 -47.515625 29.34375 -47.515625 C 31.09375 -47.515625 32.519531 -47.753906 33.625 -48.234375 C 34.726562 -48.722656 35.59375 -49.335938 36.21875 -50.078125 C 36.84375 -50.828125 37.273438 -51.59375 37.515625 -52.375 C 37.765625 -53.164062 37.890625 -53.878906 37.890625 -54.515625 C 37.890625 -55.128906 37.765625 -55.835938 37.515625 -56.640625 C 37.273438 -57.441406 36.84375 -58.210938 36.21875 -58.953125 C 35.59375 -59.703125 34.726562 -60.316406 33.625 -60.796875 C 32.519531 -61.285156 31.09375 -61.53125 29.34375 -61.53125 C 28.34375 -61.53125 27.554688 -61.34375 26.984375 -60.96875 C 26.421875 -60.59375 26.140625 -59.851562 26.140625 -58.75 Z M 26.140625 -50.296875 "/></g></g></g><g fill="#6d47ff" fill-opacity="0.4"><g transform="translate(63.768962, 81.128179)"><g><path d="M 5.765625 -26.734375 C 5.765625 -29.078125 5.585938 -31.066406 5.234375 -32.703125 C 4.878906 -34.347656 4.441406 -35.757812 3.921875 -36.9375 C 3.410156 -38.113281 2.894531 -39.164062 2.375 -40.09375 C 1.863281 -41.019531 1.425781 -41.9375 1.0625 -42.84375 C 0.707031 -43.75 0.53125 -44.773438 0.53125 -45.921875 C 0.53125 -47.160156 1.03125 -48.128906 2.03125 -48.828125 C 3.03125 -49.523438 4.296875 -50.09375 5.828125 -50.53125 C 7.359375 -50.976562 8.925781 -51.414062 10.53125 -51.84375 C 11.175781 -52.019531 11.988281 -52.242188 12.96875 -52.515625 C 13.945312 -52.785156 14.941406 -53.050781 15.953125 -53.3125 C 16.972656 -53.582031 17.882812 -53.804688 18.6875 -53.984375 C 19.488281 -54.160156 20.066406 -54.25 20.421875 -54.25 C 21.304688 -54.25 22.1875 -53.925781 23.0625 -53.28125 C 23.9375 -52.644531 24.65625 -51.535156 25.21875 -49.953125 C 25.789062 -48.367188 26.078125 -46.148438 26.078125 -43.296875 C 26.078125 -41.410156 26.085938 -39.429688 26.109375 -37.359375 C 26.128906 -35.296875 26.140625 -33.335938 26.140625 -31.484375 C 26.140625 -29.628906 26.140625 -28.046875 26.140625 -26.734375 C 26.140625 -24.453125 26.378906 -22.238281 26.859375 -20.09375 C 27.335938 -17.957031 27.90625 -15.941406 28.5625 -14.046875 C 29.226562 -12.160156 29.800781 -10.429688 30.28125 -8.859375 C 30.757812 -7.296875 31 -5.925781 31 -4.75 C 31 -3.46875 30.734375 -2.5 30.203125 -1.84375 C 29.671875 -1.1875 29.003906 -0.722656 28.203125 -0.453125 C 27.398438 -0.179688 26.597656 -0.0351562 25.796875 -0.015625 C 24.992188 -0.00390625 24.304688 0 23.734375 0 L 8.234375 0 C 7.660156 0 6.972656 -0.00390625 6.171875 -0.015625 C 5.367188 -0.0351562 4.566406 -0.179688 3.765625 -0.453125 C 2.960938 -0.722656 2.296875 -1.1875 1.765625 -1.84375 C 1.234375 -2.5 0.96875 -3.46875 0.96875 -4.75 C 0.96875 -6.175781 1.207031 -7.664062 1.6875 -9.21875 C 2.164062 -10.769531 2.722656 -12.4375 3.359375 -14.21875 C 4.003906 -16 4.566406 -17.910156 5.046875 -19.953125 C 5.523438 -22.003906 5.765625 -24.265625 5.765625 -26.734375 Z M 15.828125 -57.46875 C 15.210938 -57.46875 14.34375 -57.695312 13.21875 -58.15625 C 12.101562 -58.625 10.910156 -59.265625 9.640625 -60.078125 C 8.378906 -60.898438 7.171875 -61.851562 6.015625 -62.9375 C 4.859375 -64.03125 3.910156 -65.222656 3.171875 -66.515625 C 2.441406 -67.816406 2.078125 -69.179688 2.078125 -70.609375 C 2.078125 -72.035156 2.390625 -73.28125 3.015625 -74.34375 C 3.640625 -75.414062 4.453125 -76.253906 5.453125 -76.859375 C 6.453125 -77.472656 7.539062 -77.78125 8.71875 -77.78125 C 10.351562 -77.78125 11.75 -77.316406 12.90625 -76.390625 C 14.0625 -75.460938 15.035156 -74.515625 15.828125 -73.546875 C 16.640625 -74.515625 17.625 -75.460938 18.78125 -76.390625 C 19.945312 -77.316406 21.347656 -77.78125 22.984375 -77.78125 C 24.160156 -77.78125 25.253906 -77.472656 26.265625 -76.859375 C 27.285156 -76.253906 28.097656 -75.414062 28.703125 -74.34375 C 29.304688 -73.28125 29.609375 -72.035156 29.609375 -70.609375 C 29.609375 -69.179688 29.242188 -67.816406 28.515625 -66.515625 C 27.785156 -65.222656 26.84375 -64.03125 25.6875 -62.9375 C 24.53125 -61.851562 23.304688 -60.898438 22.015625 -60.078125 C 20.734375 -59.265625 19.539062 -58.625 18.4375 -58.15625 C 17.332031 -57.695312 16.460938 -57.46875 15.828125 -57.46875 Z M 15.828125 -57.46875 "/></g></g></g><g fill="#6d47ff" fill-opacity="0.4"><g transform="translate(95.307865, 81.128179)"><g><path d="M 18.328125 0.796875 C 15.015625 0.796875 12.015625 0.09375 9.328125 -1.3125 C 6.640625 -2.71875 4.5 -4.765625 2.90625 -7.453125 C 1.320312 -10.148438 0.53125 -13.40625 0.53125 -17.21875 C 0.53125 -19.738281 0.847656 -22.15625 1.484375 -24.46875 C 2.128906 -26.789062 2.929688 -28.984375 3.890625 -31.046875 C 4.859375 -33.117188 5.8125 -35.046875 6.75 -36.828125 C 7.695312 -38.609375 8.492188 -40.238281 9.140625 -41.71875 C 9.785156 -43.195312 10.109375 -44.523438 10.109375 -45.703125 C 10.109375 -46.628906 9.984375 -47.25 9.734375 -47.5625 C 9.484375 -47.882812 9.109375 -48.046875 8.609375 -48.046875 C 8.140625 -48.046875 7.566406 -47.957031 6.890625 -47.78125 C 6.210938 -47.601562 5.484375 -47.515625 4.703125 -47.515625 C 3.203125 -47.515625 2.140625 -47.828125 1.515625 -48.453125 C 0.898438 -49.078125 0.59375 -49.941406 0.59375 -51.046875 C 0.59375 -52.398438 1.445312 -54.019531 3.15625 -55.90625 C 4.863281 -57.800781 7.070312 -59.992188 9.78125 -62.484375 C 11.382812 -63.984375 12.925781 -65.460938 14.40625 -66.921875 C 15.882812 -68.378906 17.203125 -69.585938 18.359375 -70.546875 C 19.515625 -71.515625 20.394531 -72 21 -72 C 21.71875 -72 22.242188 -71.757812 22.578125 -71.28125 C 22.921875 -70.800781 23.15625 -70.203125 23.28125 -69.484375 C 23.40625 -68.773438 23.46875 -68.097656 23.46875 -67.453125 L 23.46875 -53.453125 L 25.65625 -53.453125 C 26.507812 -53.453125 27.203125 -53.179688 27.734375 -52.640625 C 28.273438 -52.109375 28.546875 -51.414062 28.546875 -50.5625 L 28.546875 -50.40625 C 28.546875 -49.550781 28.273438 -48.851562 27.734375 -48.3125 C 27.203125 -47.78125 26.507812 -47.515625 25.65625 -47.515625 L 23.46875 -47.515625 L 23.46875 -26.734375 C 23.46875 -23.453125 23.71875 -20.773438 24.21875 -18.703125 C 24.71875 -16.640625 25.335938 -14.992188 26.078125 -13.765625 C 26.828125 -12.535156 27.578125 -11.546875 28.328125 -10.796875 C 29.078125 -10.046875 29.703125 -9.375 30.203125 -8.78125 C 30.703125 -8.195312 30.953125 -7.476562 30.953125 -6.625 C 30.953125 -5.445312 30.566406 -4.394531 29.796875 -3.46875 C 29.035156 -2.539062 28.03125 -1.753906 26.78125 -1.109375 C 25.53125 -0.472656 24.164062 0 22.6875 0.3125 C 21.207031 0.632812 19.753906 0.796875 18.328125 0.796875 Z M 18.328125 0.796875 "/></g></g></g><g fill="#6d47ff" fill-opacity="0.4"><g transform="translate(126.804262, 81.128179)"><g/></g></g><g fill="#6d47ff" fill-opacity="0.4"><g transform="translate(147.117444, 81.128179)"><g/></g></g><g fill="#6d47ff" fill-opacity="0.4"><g transform="translate(167.430626, 81.128179)"><g/></g></g><g fill="#6d47ff" fill-opacity="0.4"><g transform="translate(187.746752, 81.128179)"><g><path d="M 32.171875 -12.78125 C 32.171875 -13.738281 31.734375 -14.519531 30.859375 -15.125 C 29.992188 -15.726562 28.828125 -16.253906 27.359375 -16.703125 C 25.898438 -17.148438 24.253906 -17.585938 22.421875 -18.015625 C 20.585938 -18.441406 18.695312 -18.945312 16.75 -19.53125 C 14.8125 -20.125 12.925781 -20.863281 11.09375 -21.75 C 9.257812 -22.644531 7.609375 -23.773438 6.140625 -25.140625 C 4.679688 -26.515625 3.515625 -28.195312 2.640625 -30.1875 C 1.773438 -32.1875 1.34375 -34.597656 1.34375 -37.421875 C 1.34375 -40.265625 1.960938 -42.738281 3.203125 -44.84375 C 4.453125 -46.945312 6.15625 -48.691406 8.3125 -50.078125 C 10.46875 -51.472656 12.925781 -52.515625 15.6875 -53.203125 C 18.445312 -53.898438 21.328125 -54.25 24.328125 -54.25 C 26.066406 -54.25 27.988281 -54.148438 30.09375 -53.953125 C 32.195312 -53.765625 34.300781 -53.425781 36.40625 -52.9375 C 38.507812 -52.457031 40.441406 -51.789062 42.203125 -50.9375 C 43.960938 -50.082031 45.375 -49.003906 46.4375 -47.703125 C 47.507812 -46.398438 48.046875 -44.820312 48.046875 -42.96875 C 48.046875 -40.695312 47.296875 -38.976562 45.796875 -37.8125 C 44.304688 -36.65625 42.421875 -36.078125 40.140625 -36.078125 C 38.179688 -36.078125 36.441406 -36.300781 34.921875 -36.75 C 33.410156 -37.195312 32.054688 -37.75 30.859375 -38.40625 C 29.671875 -39.0625 28.550781 -39.71875 27.5 -40.375 C 26.445312 -41.039062 25.421875 -41.59375 24.421875 -42.03125 C 23.429688 -42.476562 22.363281 -42.703125 21.21875 -42.703125 C 20.613281 -42.703125 19.976562 -42.578125 19.3125 -42.328125 C 18.65625 -42.078125 18.328125 -41.523438 18.328125 -40.671875 C 18.328125 -39.890625 18.769531 -39.226562 19.65625 -38.6875 C 20.550781 -38.15625 21.75 -37.675781 23.25 -37.25 C 24.75 -36.820312 26.425781 -36.382812 28.28125 -35.9375 C 30.132812 -35.5 32.054688 -34.976562 34.046875 -34.375 C 36.046875 -33.769531 37.972656 -33.03125 39.828125 -32.15625 C 41.679688 -31.28125 43.351562 -30.203125 44.84375 -28.921875 C 46.34375 -27.640625 47.535156 -26.097656 48.421875 -24.296875 C 49.316406 -22.492188 49.765625 -20.347656 49.765625 -17.859375 C 49.765625 -14.429688 49.085938 -11.53125 47.734375 -9.15625 C 46.378906 -6.789062 44.535156 -4.878906 42.203125 -3.421875 C 39.867188 -1.960938 37.226562 -0.894531 34.28125 -0.21875 C 31.34375 0.457031 28.269531 0.796875 25.0625 0.796875 C 22.070312 0.796875 19.171875 0.617188 16.359375 0.265625 C 13.546875 -0.0859375 11.015625 -0.691406 8.765625 -1.546875 C 6.523438 -2.398438 4.742188 -3.566406 3.421875 -5.046875 C 2.097656 -6.523438 1.4375 -8.40625 1.4375 -10.6875 C 1.4375 -13.113281 2.15625 -15.03125 3.59375 -16.4375 C 5.039062 -17.84375 6.941406 -18.546875 9.296875 -18.546875 C 10.972656 -18.546875 12.488281 -18.25 13.84375 -17.65625 C 15.195312 -17.070312 16.46875 -16.359375 17.65625 -15.515625 C 18.851562 -14.679688 20.03125 -13.835938 21.1875 -12.984375 C 22.351562 -12.128906 23.554688 -11.40625 24.796875 -10.8125 C 26.046875 -10.226562 27.421875 -9.9375 28.921875 -9.9375 C 29.921875 -9.976562 30.710938 -10.238281 31.296875 -10.71875 C 31.878906 -11.195312 32.171875 -11.882812 32.171875 -12.78125 Z M 32.171875 -12.78125 "/></g></g></g><g fill="#6d47ff" fill-opacity="1"><g transform="translate(0.956391, 78.292974)"><g><path d="M 1.0625 -4.75 C 1.0625 -6.570312 1.222656 -8.238281 1.546875 -9.75 C 1.867188 -11.269531 2.269531 -12.859375 2.75 -14.515625 C 3.226562 -16.171875 3.71875 -18.09375 4.21875 -20.28125 C 4.71875 -22.476562 5.128906 -25.125 5.453125 -28.21875 C 5.773438 -31.320312 5.9375 -35.101562 5.9375 -39.5625 C 5.9375 -43.257812 5.816406 -46.453125 5.578125 -49.140625 C 5.347656 -51.835938 5.046875 -54.144531 4.671875 -56.0625 C 4.296875 -57.988281 3.90625 -59.664062 3.5 -61.09375 C 3.09375 -62.519531 2.703125 -63.8125 2.328125 -64.96875 C 1.953125 -66.125 1.644531 -67.269531 1.40625 -68.40625 C 1.175781 -69.550781 1.0625 -70.820312 1.0625 -72.21875 C 1.0625 -73.5 1.375 -74.46875 2 -75.125 C 2.625 -75.789062 3.390625 -76.253906 4.296875 -76.515625 C 5.210938 -76.785156 6.113281 -76.925781 7 -76.9375 C 7.894531 -76.957031 8.625 -76.96875 9.1875 -76.96875 L 39.609375 -76.96875 C 43.273438 -76.96875 46.523438 -76.226562 49.359375 -74.75 C 52.191406 -73.269531 54.421875 -71.191406 56.046875 -68.515625 C 57.671875 -65.847656 58.484375 -62.734375 58.484375 -59.171875 C 58.484375 -57.640625 58.273438 -56.070312 57.859375 -54.46875 C 57.453125 -52.863281 56.773438 -51.320312 55.828125 -49.84375 C 54.890625 -48.363281 53.644531 -47.046875 52.09375 -45.890625 C 50.539062 -44.734375 48.625 -43.851562 46.34375 -43.25 C 45.445312 -43 45 -42.660156 45 -42.234375 C 45 -41.941406 45.351562 -41.632812 46.0625 -41.3125 C 46.78125 -41 47.691406 -40.597656 48.796875 -40.109375 C 49.898438 -39.628906 51.082031 -38.953125 52.34375 -38.078125 C 53.613281 -37.210938 54.800781 -36.082031 55.90625 -34.6875 C 57.007812 -33.300781 57.914062 -31.554688 58.625 -29.453125 C 59.34375 -27.347656 59.703125 -24.78125 59.703125 -21.75 C 59.703125 -19.894531 59.441406 -17.960938 58.921875 -15.953125 C 58.410156 -13.941406 57.59375 -11.988281 56.46875 -10.09375 C 55.351562 -8.207031 53.867188 -6.5 52.015625 -4.96875 C 50.160156 -3.4375 47.894531 -2.222656 45.21875 -1.328125 C 42.550781 -0.441406 39.414062 0 35.8125 0 L 8.34375 0 C 7.769531 0 7.082031 -0.00390625 6.28125 -0.015625 C 5.476562 -0.0351562 4.675781 -0.179688 3.875 -0.453125 C 3.070312 -0.722656 2.398438 -1.1875 1.859375 -1.84375 C 1.328125 -2.5 1.0625 -3.46875 1.0625 -4.75 Z M 26.140625 -19.34375 C 26.140625 -17.8125 26.421875 -16.785156 26.984375 -16.265625 C 27.554688 -15.753906 28.34375 -15.5 29.34375 -15.5 C 31.09375 -15.5 32.519531 -15.835938 33.625 -16.515625 C 34.726562 -17.191406 35.59375 -18.046875 36.21875 -19.078125 C 36.84375 -20.117188 37.273438 -21.191406 37.515625 -22.296875 C 37.765625 -23.398438 37.890625 -24.378906 37.890625 -25.234375 C 37.890625 -26.085938 37.765625 -27.070312 37.515625 -28.1875 C 37.273438 -29.3125 36.84375 -30.390625 36.21875 -31.421875 C 35.59375 -32.460938 34.726562 -33.320312 33.625 -34 C 32.519531 -34.675781 31.09375 -35.015625 29.34375 -35.015625 C 28.34375 -35.015625 27.554688 -34.765625 26.984375 -34.265625 C 26.421875 -33.765625 26.140625 -32.726562 26.140625 -31.15625 C 26.140625 -30.800781 26.144531 -30.222656 26.15625 -29.421875 C 26.175781 -28.617188 26.195312 -27.816406 26.21875 -27.015625 C 26.238281 -26.210938 26.25 -25.617188 26.25 -25.234375 C 26.25 -24.878906 26.238281 -24.300781 26.21875 -23.5 C 26.195312 -22.695312 26.175781 -21.898438 26.15625 -21.109375 C 26.144531 -20.328125 26.140625 -19.738281 26.140625 -19.34375 Z M 26.140625 -50.296875 C 26.140625 -49.191406 26.421875 -48.453125 26.984375 -48.078125 C 27.554688 -47.703125 28.34375 -47.515625 29.34375 -47.515625 C 31.09375 -47.515625 32.519531 -47.753906 33.625 -48.234375 C 34.726562 -48.722656 35.59375 -49.335938 36.21875 -50.078125 C 36.84375 -50.828125 37.273438 -51.59375 37.515625 -52.375 C 37.765625 -53.164062 37.890625 -53.878906 37.890625 -54.515625 C 37.890625 -55.128906 37.765625 -55.835938 37.515625 -56.640625 C 37.273438 -57.441406 36.84375 -58.210938 36.21875 -58.953125 C 35.59375 -59.703125 34.726562 -60.316406 33.625 -60.796875 C 32.519531 -61.285156 31.09375 -61.53125 29.34375 -61.53125 C 28.34375 -61.53125 27.554688 -61.34375 26.984375 -60.96875 C 26.421875 -60.59375 26.140625 -59.851562 26.140625 -58.75 Z M 26.140625 -50.296875 "/></g></g></g><g clip-path="url(#44849abc1c)"><g fill="#6d47ff" fill-opacity="1"><g transform="translate(60.933756, 78.292974)"><g><path d="M 5.765625 -26.734375 C 5.765625 -29.078125 5.585938 -31.066406 5.234375 -32.703125 C 4.878906 -34.347656 4.441406 -35.757812 3.921875 -36.9375 C 3.410156 -38.113281 2.894531 -39.164062 2.375 -40.09375 C 1.863281 -41.019531 1.425781 -41.9375 1.0625 -42.84375 C 0.707031 -43.75 0.53125 -44.773438 0.53125 -45.921875 C 0.53125 -47.160156 1.03125 -48.128906 2.03125 -48.828125 C 3.03125 -49.523438 4.296875 -50.09375 5.828125 -50.53125 C 7.359375 -50.976562 8.925781 -51.414062 10.53125 -51.84375 C 11.175781 -52.019531 11.988281 -52.242188 12.96875 -52.515625 C 13.945312 -52.785156 14.941406 -53.050781 15.953125 -53.3125 C 16.972656 -53.582031 17.882812 -53.804688 18.6875 -53.984375 C 19.488281 -54.160156 20.066406 -54.25 20.421875 -54.25 C 21.304688 -54.25 22.1875 -53.925781 23.0625 -53.28125 C 23.9375 -52.644531 24.65625 -51.535156 25.21875 -49.953125 C 25.789062 -48.367188 26.078125 -46.148438 26.078125 -43.296875 C 26.078125 -41.410156 26.085938 -39.429688 26.109375 -37.359375 C 26.128906 -35.296875 26.140625 -33.335938 26.140625 -31.484375 C 26.140625 -29.628906 26.140625 -28.046875 26.140625 -26.734375 C 26.140625 -24.453125 26.378906 -22.238281 26.859375 -20.09375 C 27.335938 -17.957031 27.90625 -15.941406 28.5625 -14.046875 C 29.226562 -12.160156 29.800781 -10.429688 30.28125 -8.859375 C 30.757812 -7.296875 31 -5.925781 31 -4.75 C 31 -3.46875 30.734375 -2.5 30.203125 -1.84375 C 29.671875 -1.1875 29.003906 -0.722656 28.203125 -0.453125 C 27.398438 -0.179688 26.597656 -0.0351562 25.796875 -0.015625 C 24.992188 -0.00390625 24.304688 0 23.734375 0 L 8.234375 0 C 7.660156 0 6.972656 -0.00390625 6.171875 -0.015625 C 5.367188 -0.0351562 4.566406 -0.179688 3.765625 -0.453125 C 2.960938 -0.722656 2.296875 -1.1875 1.765625 -1.84375 C 1.234375 -2.5 0.96875 -3.46875 0.96875 -4.75 C 0.96875 -6.175781 1.207031 -7.664062 1.6875 -9.21875 C 2.164062 -10.769531 2.722656 -12.4375 3.359375 -14.21875 C 4.003906 -16 4.566406 -17.910156 5.046875 -19.953125 C 5.523438 -22.003906 5.765625 -24.265625 5.765625 -26.734375 Z M 15.828125 -57.46875 C 15.210938 -57.46875 14.34375 -57.695312 13.21875 -58.15625 C 12.101562 -58.625 10.910156 -59.265625 9.640625 -60.078125 C 8.378906 -60.898438 7.171875 -61.851562 6.015625 -62.9375 C 4.859375 -64.03125 3.910156 -65.222656 3.171875 -66.515625 C 2.441406 -67.816406 2.078125 -69.179688 2.078125 -70.609375 C 2.078125 -72.035156 2.390625 -73.28125 3.015625 -74.34375 C 3.640625 -75.414062 4.453125 -76.253906 5.453125 -76.859375 C 6.453125 -77.472656 7.539062 -77.78125 8.71875 -77.78125 C 10.351562 -77.78125 11.75 -77.316406 12.90625 -76.390625 C 14.0625 -75.460938 15.035156 -74.515625 15.828125 -73.546875 C 16.640625 -74.515625 17.625 -75.460938 18.78125 -76.390625 C 19.945312 -77.316406 21.347656 -77.78125 22.984375 -77.78125 C 24.160156 -77.78125 25.253906 -77.472656 26.265625 -76.859375 C 27.285156 -76.253906 28.097656 -75.414062 28.703125 -74.34375 C 29.304688 -73.28125 29.609375 -72.035156 29.609375 -70.609375 C 29.609375 -69.179688 29.242188 -67.816406 28.515625 -66.515625 C 27.785156 -65.222656 26.84375 -64.03125 25.6875 -62.9375 C 24.53125 -61.851562 23.304688 -60.898438 22.015625 -60.078125 C 20.734375 -59.265625 19.539062 -58.625 18.4375 -58.15625 C 17.332031 -57.695312 16.460938 -57.46875 15.828125 -57.46875 Z M 15.828125 -57.46875 "/></g></g></g></g><g fill="#6d47ff" fill-opacity="1"><g transform="translate(92.472659, 78.292974)"><g><path d="M 18.328125 0.796875 C 15.015625 0.796875 12.015625 0.09375 9.328125 -1.3125 C 6.640625 -2.71875 4.5 -4.765625 2.90625 -7.453125 C 1.320312 -10.148438 0.53125 -13.40625 0.53125 -17.21875 C 0.53125 -19.738281 0.847656 -22.15625 1.484375 -24.46875 C 2.128906 -26.789062 2.929688 -28.984375 3.890625 -31.046875 C 4.859375 -33.117188 5.8125 -35.046875 6.75 -36.828125 C 7.695312 -38.609375 8.492188 -40.238281 9.140625 -41.71875 C 9.785156 -43.195312 10.109375 -44.523438 10.109375 -45.703125 C 10.109375 -46.628906 9.984375 -47.25 9.734375 -47.5625 C 9.484375 -47.882812 9.109375 -48.046875 8.609375 -48.046875 C 8.140625 -48.046875 7.566406 -47.957031 6.890625 -47.78125 C 6.210938 -47.601562 5.484375 -47.515625 4.703125 -47.515625 C 3.203125 -47.515625 2.140625 -47.828125 1.515625 -48.453125 C 0.898438 -49.078125 0.59375 -49.941406 0.59375 -51.046875 C 0.59375 -52.398438 1.445312 -54.019531 3.15625 -55.90625 C 4.863281 -57.800781 7.070312 -59.992188 9.78125 -62.484375 C 11.382812 -63.984375 12.925781 -65.460938 14.40625 -66.921875 C 15.882812 -68.378906 17.203125 -69.585938 18.359375 -70.546875 C 19.515625 -71.515625 20.394531 -72 21 -72 C 21.71875 -72 22.242188 -71.757812 22.578125 -71.28125 C 22.921875 -70.800781 23.15625 -70.203125 23.28125 -69.484375 C 23.40625 -68.773438 23.46875 -68.097656 23.46875 -67.453125 L 23.46875 -53.453125 L 25.65625 -53.453125 C 26.507812 -53.453125 27.203125 -53.179688 27.734375 -52.640625 C 28.273438 -52.109375 28.546875 -51.414062 28.546875 -50.5625 L 28.546875 -50.40625 C 28.546875 -49.550781 28.273438 -48.851562 27.734375 -48.3125 C 27.203125 -47.78125 26.507812 -47.515625 25.65625 -47.515625 L 23.46875 -47.515625 L 23.46875 -26.734375 C 23.46875 -23.453125 23.71875 -20.773438 24.21875 -18.703125 C 24.71875 -16.640625 25.335938 -14.992188 26.078125 -13.765625 C 26.828125 -12.535156 27.578125 -11.546875 28.328125 -10.796875 C 29.078125 -10.046875 29.703125 -9.375 30.203125 -8.78125 C 30.703125 -8.195312 30.953125 -7.476562 30.953125 -6.625 C 30.953125 -5.445312 30.566406 -4.394531 29.796875 -3.46875 C 29.035156 -2.539062 28.03125 -1.753906 26.78125 -1.109375 C 25.53125 -0.472656 24.164062 0 22.6875 0.3125 C 21.207031 0.632812 19.753906 0.796875 18.328125 0.796875 Z M 18.328125 0.796875 "/></g></g></g><g fill="#6d47ff" fill-opacity="1"><g transform="translate(123.969055, 78.292974)"><g/></g></g><g fill="#6d47ff" fill-opacity="1"><g transform="translate(144.282238, 78.292974)"><g/></g></g><g fill="#6d47ff" fill-opacity="1"><g transform="translate(164.59542, 78.292974)"><g/></g></g><g fill="#6d47ff" fill-opacity="1"><g transform="translate(184.911545, 78.292974)"><g><path d="M 32.171875 -12.78125 C 32.171875 -13.738281 31.734375 -14.519531 30.859375 -15.125 C 29.992188 -15.726562 28.828125 -16.253906 27.359375 -16.703125 C 25.898438 -17.148438 24.253906 -17.585938 22.421875 -18.015625 C 20.585938 -18.441406 18.695312 -18.945312 16.75 -19.53125 C 14.8125 -20.125 12.925781 -20.863281 11.09375 -21.75 C 9.257812 -22.644531 7.609375 -23.773438 6.140625 -25.140625 C 4.679688 -26.515625 3.515625 -28.195312 2.640625 -30.1875 C 1.773438 -32.1875 1.34375 -34.597656 1.34375 -37.421875 C 1.34375 -40.265625 1.960938 -42.738281 3.203125 -44.84375 C 4.453125 -46.945312 6.15625 -48.691406 8.3125 -50.078125 C 10.46875 -51.472656 12.925781 -52.515625 15.6875 -53.203125 C 18.445312 -53.898438 21.328125 -54.25 24.328125 -54.25 C 26.066406 -54.25 27.988281 -54.148438 30.09375 -53.953125 C 32.195312 -53.765625 34.300781 -53.425781 36.40625 -52.9375 C 38.507812 -52.457031 40.441406 -51.789062 42.203125 -50.9375 C 43.960938 -50.082031 45.375 -49.003906 46.4375 -47.703125 C 47.507812 -46.398438 48.046875 -44.820312 48.046875 -42.96875 C 48.046875 -40.695312 47.296875 -38.976562 45.796875 -37.8125 C 44.304688 -36.65625 42.421875 -36.078125 40.140625 -36.078125 C 38.179688 -36.078125 36.441406 -36.300781 34.921875 -36.75 C 33.410156 -37.195312 32.054688 -37.75 30.859375 -38.40625 C 29.671875 -39.0625 28.550781 -39.71875 27.5 -40.375 C 26.445312 -41.039062 25.421875 -41.59375 24.421875 -42.03125 C 23.429688 -42.476562 22.363281 -42.703125 21.21875 -42.703125 C 20.613281 -42.703125 19.976562 -42.578125 19.3125 -42.328125 C 18.65625 -42.078125 18.328125 -41.523438 18.328125 -40.671875 C 18.328125 -39.890625 18.769531 -39.226562 19.65625 -38.6875 C 20.550781 -38.15625 21.75 -37.675781 23.25 -37.25 C 24.75 -36.820312 26.425781 -36.382812 28.28125 -35.9375 C 30.132812 -35.5 32.054688 -34.976562 34.046875 -34.375 C 36.046875 -33.769531 37.972656 -33.03125 39.828125 -32.15625 C 41.679688 -31.28125 43.351562 -30.203125 44.84375 -28.921875 C 46.34375 -27.640625 47.535156 -26.097656 48.421875 -24.296875 C 49.316406 -22.492188 49.765625 -20.347656 49.765625 -17.859375 C 49.765625 -14.429688 49.085938 -11.53125 47.734375 -9.15625 C 46.378906 -6.789062 44.535156 -4.878906 42.203125 -3.421875 C 39.867188 -1.960938 37.226562 -0.894531 34.28125 -0.21875 C 31.34375 0.457031 28.269531 0.796875 25.0625 0.796875 C 22.070312 0.796875 19.171875 0.617188 16.359375 0.265625 C 13.546875 -0.0859375 11.015625 -0.691406 8.765625 -1.546875 C 6.523438 -2.398438 4.742188 -3.566406 3.421875 -5.046875 C 2.097656 -6.523438 1.4375 -8.40625 1.4375 -10.6875 C 1.4375 -13.113281 2.15625 -15.03125 3.59375 -16.4375 C 5.039062 -17.84375 6.941406 -18.546875 9.296875 -18.546875 C 10.972656 -18.546875 12.488281 -18.25 13.84375 -17.65625 C 15.195312 -17.070312 16.46875 -16.359375 17.65625 -15.515625 C 18.851562 -14.679688 20.03125 -13.835938 21.1875 -12.984375 C 22.351562 -12.128906 23.554688 -11.40625 24.796875 -10.8125 C 26.046875 -10.226562 27.421875 -9.9375 28.921875 -9.9375 C 29.921875 -9.976562 30.710938 -10.238281 31.296875 -10.71875 C 31.878906 -11.195312 32.171875 -11.882812 32.171875 -12.78125 Z M 32.171875 -12.78125 "/></g></g></g></g></g><g clip-path="url(#a5649f9901)"><g clip-path="url(#996d894422)"><g clip-path="url(#200da27099)"><path fill="#6d47ff" d="M 236.835938 225.214844 C 227.800781 230.636719 233.21875 243.285156 244.0625 243.285156 C 229.101562 258.246094 204.8125 258.246094 189.851562 243.285156 C 174.890625 228.324219 174.890625 204.035156 189.851562 189.074219 C 204.8125 174.113281 229.101562 174.113281 244.0625 189.074219 C 234.195312 189.074219 228.792969 199.574219 234.773438 205.554688 C 235.394531 206.171875 236.082031 206.703125 236.835938 207.144531 C 228.378906 209.964844 226.5 217.191406 231.269531 221.960938 C 232.585938 223.28125 234.449219 224.417969 236.835938 225.214844 Z M 216.957031 237.863281 C 217.195312 237.625 217.40625 237.367188 217.59375 237.089844 C 217.78125 236.808594 217.9375 236.515625 218.066406 236.207031 C 218.195312 235.894531 218.289062 235.574219 218.355469 235.246094 C 218.421875 234.917969 218.453125 234.585938 218.453125 234.25 C 218.453125 233.914062 218.421875 233.582031 218.355469 233.253906 C 218.289062 232.921875 218.195312 232.605469 218.066406 232.292969 C 217.9375 231.984375 217.78125 231.6875 217.59375 231.410156 C 217.40625 231.132812 217.195312 230.871094 216.957031 230.636719 C 216.71875 230.398438 216.460938 230.1875 216.183594 230 C 215.902344 229.8125 215.609375 229.65625 215.300781 229.527344 C 214.988281 229.398438 214.667969 229.300781 214.339844 229.238281 C 214.011719 229.171875 213.679688 229.136719 213.34375 229.136719 C 213.007812 229.136719 212.675781 229.171875 212.347656 229.238281 C 212.015625 229.300781 211.699219 229.398438 211.386719 229.527344 C 211.078125 229.65625 210.78125 229.8125 210.503906 230 C 210.226562 230.1875 209.964844 230.398438 209.730469 230.636719 C 209.492188 230.871094 209.28125 231.132812 209.09375 231.410156 C 208.90625 231.6875 208.75 231.984375 208.621094 232.292969 C 208.492188 232.605469 208.394531 232.921875 208.332031 233.253906 C 208.265625 233.582031 208.230469 233.914062 208.230469 234.25 C 208.230469 234.585938 208.265625 234.917969 208.332031 235.246094 C 208.394531 235.574219 208.492188 235.894531 208.621094 236.207031 C 208.75 236.515625 208.90625 236.808594 209.09375 237.089844 C 209.28125 237.367188 209.492188 237.625 209.730469 237.863281 C 209.96875 238.101562 210.226562 238.3125 210.503906 238.496094 C 210.785156 238.683594 211.078125 238.839844 211.386719 238.96875 C 211.699219 239.09375 212.019531 239.191406 212.347656 239.257812 C 212.675781 239.320312 213.007812 239.355469 213.34375 239.355469 C 213.679688 239.355469 214.011719 239.320312 214.339844 239.257812 C 214.667969 239.191406 214.988281 239.09375 215.296875 238.96875 C 215.609375 238.839844 215.902344 238.683594 216.183594 238.496094 C 216.460938 238.3125 216.71875 238.101562 216.957031 237.863281 Z M 201.597656 220.695312 C 201.894531 220.402344 202.160156 220.078125 202.390625 219.730469 C 202.625 219.378906 202.820312 219.011719 202.984375 218.625 C 203.144531 218.238281 203.265625 217.835938 203.347656 217.425781 C 203.429688 217.015625 203.46875 216.597656 203.46875 216.179688 C 203.46875 215.761719 203.429688 215.34375 203.347656 214.933594 C 203.265625 214.523438 203.144531 214.121094 202.984375 213.734375 C 202.824219 213.347656 202.625 212.980469 202.390625 212.628906 C 202.160156 212.28125 201.894531 211.957031 201.597656 211.664062 C 201.300781 211.367188 200.980469 211.101562 200.628906 210.867188 C 200.28125 210.632812 199.914062 210.4375 199.523438 210.277344 C 199.136719 210.117188 198.738281 209.996094 198.328125 209.914062 C 197.914062 209.832031 197.5 209.789062 197.082031 209.789062 C 196.660156 209.789062 196.246094 209.832031 195.835938 209.914062 C 195.421875 209.996094 195.023438 210.117188 194.636719 210.277344 C 194.246094 210.4375 193.878906 210.632812 193.53125 210.867188 C 193.183594 211.101562 192.859375 211.367188 192.5625 211.664062 C 192.265625 211.957031 192 212.28125 191.769531 212.628906 C 191.535156 212.980469 191.339844 213.347656 191.179688 213.734375 C 191.015625 214.121094 190.894531 214.523438 190.8125 214.933594 C 190.734375 215.34375 190.691406 215.761719 190.691406 216.179688 C 190.691406 216.597656 190.734375 217.015625 190.8125 217.425781 C 190.894531 217.835938 191.015625 218.238281 191.179688 218.625 C 191.339844 219.011719 191.535156 219.378906 191.769531 219.730469 C 192 220.078125 192.265625 220.402344 192.5625 220.695312 C 192.859375 220.992188 193.183594 221.257812 193.53125 221.492188 C 193.878906 221.722656 194.25 221.921875 194.636719 222.082031 C 195.023438 222.242188 195.421875 222.363281 195.835938 222.445312 C 196.246094 222.527344 196.660156 222.566406 197.082031 222.566406 C 197.5 222.566406 197.914062 222.527344 198.328125 222.445312 C 198.738281 222.363281 199.136719 222.242188 199.523438 222.082031 C 199.914062 221.921875 200.28125 221.722656 200.628906 221.492188 C 200.976562 221.257812 201.300781 220.992188 201.597656 220.695312 Z M 216.957031 201.722656 C 217.195312 201.488281 217.40625 201.226562 217.59375 200.949219 C 217.777344 200.671875 217.9375 200.375 218.066406 200.066406 C 218.195312 199.753906 218.289062 199.4375 218.355469 199.105469 C 218.421875 198.777344 218.453125 198.445312 218.453125 198.109375 C 218.453125 197.773438 218.421875 197.441406 218.355469 197.113281 C 218.289062 196.785156 218.195312 196.464844 218.066406 196.152344 C 217.9375 195.84375 217.777344 195.550781 217.59375 195.269531 C 217.40625 194.992188 217.195312 194.734375 216.957031 194.496094 C 216.71875 194.257812 216.460938 194.046875 216.183594 193.859375 C 215.902344 193.675781 215.609375 193.515625 215.300781 193.386719 C 214.988281 193.257812 214.667969 193.164062 214.339844 193.097656 C 214.011719 193.03125 213.679688 193 213.34375 193 C 213.007812 193 212.675781 193.03125 212.347656 193.097656 C 212.015625 193.164062 211.699219 193.257812 211.386719 193.386719 C 211.078125 193.515625 210.78125 193.675781 210.503906 193.859375 C 210.226562 194.046875 209.964844 194.257812 209.730469 194.496094 C 209.492188 194.734375 209.28125 194.992188 209.09375 195.269531 C 208.90625 195.550781 208.75 195.84375 208.621094 196.152344 C 208.492188 196.464844 208.394531 196.785156 208.332031 197.113281 C 208.265625 197.441406 208.230469 197.773438 208.230469 198.109375 C 208.230469 198.445312 208.265625 198.777344 208.332031 199.105469 C 208.394531 199.4375 208.492188 199.753906 208.621094 200.066406 C 208.75 200.375 208.90625 200.671875 209.09375 200.949219 C 209.28125 201.226562 209.492188 201.488281 209.730469 201.722656 C 209.96875 201.960938 210.226562 202.171875 210.503906 202.355469 C 210.785156 202.542969 211.078125 202.699219 211.386719 202.828125 C 211.699219 202.957031 212.019531 203.050781 212.347656 203.117188 C 212.675781 203.183594 213.007812 203.214844 213.34375 203.214844 C 213.679688 203.214844 214.011719 203.183594 214.339844 203.117188 C 214.667969 203.050781 214.988281 202.957031 215.296875 202.828125 C 215.609375 202.699219 215.902344 202.542969 216.183594 202.355469 C 216.460938 202.171875 216.71875 201.960938 216.957031 201.722656 Z M 216.957031 201.722656 " fill-opacity="1" fill-rule="nonzero"/></g></g></g><g clip-path="url(#38d47c9d0e)"><g clip-path="url(#9469a698da)"><g clip-path="url(#c60d3b0f57)"><path fill="#6d47ff" d="M 53.898438 150.207031 C 53.898438 150.207031 60.375 157.296875 68.851562 143.90625 C 68.851562 143.90625 71.8125 136.878906 61.644531 135.972656 C 61.644531 135.972656 44.167969 128.148438 53.898438 150.207031 Z M 53.898438 150.207031 " fill-opacity="1" fill-rule="nonzero"/></g></g></g><g clip-path="url(#7cd63385a9)"><g clip-path="url(#fc69b696fb)"><g clip-path="url(#d04bed972f)"><path fill="#6d47ff" d="M 74.484375 132.722656 C 74.484375 132.722656 77.652344 136.195312 81.808594 129.632812 C 81.808594 129.632812 83.261719 126.183594 78.28125 125.738281 C 78.28125 125.738281 69.71875 121.910156 74.484375 132.722656 Z M 74.484375 132.722656 " fill-opacity="1" fill-rule="nonzero"/></g></g></g><g clip-path="url(#dd895e80a7)"><g clip-path="url(#8b68d2679c)"><g clip-path="url(#57ab529cb6)"><path fill="#6d47ff" d="M 79.417969 148.304688 C 79.417969 148.304688 68.460938 160.824219 77.847656 161.714844 C 87.21875 162.609375 91.511719 162.339844 91.511719 162.339844 C 91.511719 162.339844 93.359375 140.710938 86.386719 144.511719 C 79.417969 148.304688 79.417969 148.304688 79.417969 148.304688 Z M 79.417969 148.304688 " fill-opacity="1" fill-rule="nonzero"/></g></g></g><g clip-path="url(#93fd657c82)"><g clip-path="url(#e7c3c529b9)"><g transform="matrix(1, 0, 0, 1, 289, 208)"><g clip-path="url(#6be3f8d651)"><g clip-path="url(#17c6e3a4f4)"><g clip-path="url(#ee30431020)"><g clip-path="url(#c8128e9290)"><path fill="#6d47ff" d="M 32.617188 19.617188 C 32.617188 19.617188 28.753906 25.359375 21.289062 16.707031 C 21.289062 16.707031 18.433594 12.011719 25.585938 10.289062 C 25.585938 10.289062 37.222656 2.855469 32.617188 19.617188 Z M 32.617188 19.617188 " fill-opacity="1" fill-rule="nonzero"/></g></g></g><g clip-path="url(#9e9522401a)"><g clip-path="url(#67062f4aef)"><g clip-path="url(#4dc2a294ee)"><path fill="#6d47ff" d="M 16.085938 9.328125 C 16.085938 9.328125 14.199219 12.140625 10.539062 7.902344 C 10.539062 7.902344 9.136719 5.59375 12.640625 4.75 C 12.640625 4.75 18.34375 1.113281 16.085938 9.328125 Z M 16.085938 9.328125 " fill-opacity="1" fill-rule="nonzero"/></g></g></g><g clip-path="url(#cee1bbd642)"><g clip-path="url(#a54a8b9666)"><g clip-path="url(#0e1e54cc4d)"><path fill="#6d47ff" d="M 14.21875 20.960938 C 14.21875 20.960938 23.359375 28.730469 16.757812 30.359375 C 10.171875 31.988281 7.082031 32.25 7.082031 32.25 C 7.082031 32.25 3.472656 17.023438 8.851562 18.996094 C 14.21875 20.960938 14.21875 20.960938 14.21875 20.960938 Z M 14.21875 20.960938 " fill-opacity="1" fill-rule="nonzero"/></g></g></g></g></g></g></g></svg>